<?xml version="1.0" standalone="no"?>
<!DOCTYPE svg PUBLIC "-//W3C//DTD SVG 20010904//EN"
 "http://www.w3.org/TR/2001/REC-SVG-20010904/DTD/svg10.dtd">
<svg version="1.0" xmlns="http://www.w3.org/2000/svg"
 width="120.000000pt" height="135.000000pt" viewBox="0 0 120.000000 135.000000"
 preserveAspectRatio="xMidYMid meet">
<metadata>
Created by potrace 1.16, written by Peter Selinger 2001-2019
</metadata>
<g transform="translate(0.000000,135.000000) scale(0.100000,-0.100000)"
fill="#000000" stroke="none">
<path d="M0 675 l0 -675 600 0 600 0 0 675 0 675 -297 -1 c-200 0 -293 -3
-283 -10 8 -6 134 -79 280 -162 l265 -153 0 -338 0 -338 -275 -159 c-151 -87
-282 -159 -291 -159 -9 0 -72 32 -140 72 -68 39 -191 110 -274 158 l-150 86 0
339 0 339 190 111 c105 60 231 134 280 162 l90 52 -297 1 -298 0 0 -675z"/>
<path d="M576 1305 c-8 -8 -18 -15 -21 -15 -4 0 -34 -16 -68 -36 -71 -42 -82
-49 -235 -134 -82 -46 -110 -66 -100 -73 10 -6 8 -7 -4 -3 -10 3 -36 -4 -58
-16 l-40 -22 0 -322 c0 -304 1 -323 18 -328 10 -4 45 -22 78 -42 32 -20 82
-48 109 -63 28 -16 116 -67 197 -115 l147 -86 223 129 c123 71 247 144 276
162 l52 32 0 316 0 317 -42 22 c-24 12 -61 32 -83 46 -150 90 -256 145 -270
140 -11 -5 -14 -2 -8 12 5 13 3 16 -10 11 -9 -3 -17 -2 -17 3 0 15 -86 61
-103 55 -8 -4 -18 -2 -22 4 -4 7 0 8 11 4 12 -4 15 -3 10 5 -10 16 -22 15 -40
-3z m-136 -105 c0 -5 -5 -10 -11 -10 -5 0 -7 5 -4 10 3 6 8 10 11 10 2 0 4 -4
4 -10z m201 -126 c52 -26 108 -100 109 -141 0 -23 1 -23 149 -23 127 0 150 -2
155 -16 8 -20 8 -408 0 -428 -5 -13 -24 -16 -104 -16 l-99 0 -3 -32 -3 -33
-310 -3 c-295 -2 -312 -1 -343 18 -37 23 -52 54 -52 110 0 30 7 46 34 75 32
34 38 36 88 33 44 -2 56 1 70 18 9 11 37 31 61 44 l44 23 -35 35 c-44 44 -62
89 -62 149 1 89 57 168 142 200 41 16 116 10 159 -13z m-574 -171 c-2 -16 -4
-5 -4 22 0 28 2 40 4 28 2 -13 2 -35 0 -50z m726 30 c-7 -2 -19 -2 -25 0 -7 3
-2 5 12 5 14 0 19 -2 13 -5z"/>
<path d="M484 1034 c-61 -30 -87 -68 -92 -132 -7 -102 45 -163 145 -169 62 -3
98 11 136 57 68 80 28 218 -71 248 -52 16 -80 15 -118 -4z"/>
<path d="M763 840 c-2 -18 0 -19 14 -5 12 13 36 15 117 13 l101 -3 3 -58 3
-58 -119 3 -118 3 4 -55 c2 -33 11 -61 20 -70 14 -13 15 -13 5 0 -6 8 -10 33
-9 55 1 36 4 40 29 43 15 2 27 -1 27 -6 0 -6 12 -6 30 1 25 10 33 9 40 -3 8
-12 12 -13 19 -2 13 22 55 11 59 -15 2 -14 -2 -23 -10 -23 -10 0 -10 -2 1 -9
8 -5 11 -16 8 -25 -5 -13 -19 -15 -75 -13 -38 2 -78 0 -88 -4 -18 -7 -18 -8 1
-9 47 -4 156 -1 165 5 6 4 7 -2 1 -17 -8 -21 -15 -23 -77 -24 -100 -2 -94 0
-83 -34 l11 -30 84 0 84 0 0 180 0 180 -123 0 c-116 0 -123 -1 -124 -20z"/>
<path d="M810 790 c0 -6 32 -10 75 -10 43 0 75 4 75 10 0 6 -32 10 -75 10 -43
0 -75 -4 -75 -10z"/>
<path d="M684 731 l-31 -28 30 -11 c17 -7 32 -10 35 -8 2 2 2 20 0 39 l-3 36
-31 -28z"/>
<path d="M580 660 c0 -10 5 -31 10 -45 l10 -26 26 31 c30 35 29 37 -15 50 -27
7 -31 6 -31 -10z"/>
<path d="M834 669 c-8 -14 8 -30 22 -21 9 5 8 10 -2 19 -9 9 -15 10 -20 2z"/>
<path d="M911 666 c-9 -10 -9 -16 -1 -21 17 -10 37 12 24 25 -8 8 -15 6 -23
-4z"/>
<path d="M461 661 c-12 -8 -12 -12 -2 -25 7 -9 17 -14 21 -11 5 3 12 0 16 -6
4 -8 3 -9 -4 -5 -7 4 -12 3 -12 -3 0 -5 4 -12 9 -15 11 -7 23 22 15 35 -3 5 0
9 5 9 6 0 11 7 11 15 0 17 -36 20 -59 6z"/>
<path d="M374 608 c-19 -22 -19 -25 -5 -53 10 -18 24 -30 36 -30 17 0 20 -8
23 -50 l3 -50 119 3 119 3 3 47 c3 39 6 47 23 47 17 0 20 -8 23 -47 l3 -48 40
0 c35 0 39 3 39 25 0 49 -60 155 -95 168 -8 4 -38 -27 -79 -79 -36 -46 -70
-84 -74 -84 -15 0 -38 24 -93 98 -29 39 -56 72 -60 72 -3 0 -14 -10 -25 -22z
m301 -48 c-3 -5 -11 -10 -16 -10 -6 0 -7 5 -4 10 3 6 11 10 16 10 6 0 7 -4 4
-10z"/>
<path d="M240 573 c-52 -19 -69 -93 -30 -128 18 -17 20 -17 14 -2 -5 13 0 17
20 17 28 0 35 14 12 23 -7 3 -19 0 -25 -6 -9 -9 -10 -8 -5 7 5 12 4 17 -2 13
-6 -3 -9 5 -6 22 5 35 35 55 62 41 26 -14 26 -34 0 -27 -32 8 -34 -12 -3 -26
31 -13 34 -42 5 -64 -14 -11 -14 -13 0 -13 24 0 49 35 50 71 1 24 -6 39 -26
56 -27 23 -39 26 -66 16z"/>
<path d="M541 558 c-1 -16 4 -28 9 -28 12 0 12 8 0 35 -8 18 -9 17 -9 -7z"/>
<path d="M366 445 c-3 -8 -1 -15 4 -15 6 0 10 7 10 15 0 8 -2 15 -4 15 -2 0
-6 -7 -10 -15z"/>
</g>
</svg>
