<?xml version="1.0" encoding="UTF-8" standalone="no"?>
<svg
   version="1.1"
   id="Layer_1"
   x="0px"
   y="0px"
   width="100%"
   viewBox="0 0 500 500"
   enable-background="new 0 0 500 500"
   xml:space="preserve"
   sodipodi:docname="mare.svg"
   inkscape:version="1.4.3 (0d15f75042, 2025-12-25)"
   xmlns:inkscape="http://www.inkscape.org/namespaces/inkscape"
   xmlns:sodipodi="http://sodipodi.sourceforge.net/DTD/sodipodi-0.dtd"
   xmlns="http://www.w3.org/2000/svg"
   xmlns:svg="http://www.w3.org/2000/svg"><defs
   id="defs36" /><sodipodi:namedview
   id="namedview36"
   pagecolor="#ffffff"
   bordercolor="#000000"
   borderopacity="0.25"
   inkscape:showpageshadow="2"
   inkscape:pageopacity="0.0"
   inkscape:pagecheckerboard="0"
   inkscape:deskcolor="#d1d1d1"
   inkscape:zoom="3.684"
   inkscape:cx="249.86428"
   inkscape:cy="228.28447"
   inkscape:window-width="3840"
   inkscape:window-height="2053"
   inkscape:window-x="0"
   inkscape:window-y="0"
   inkscape:window-maximized="1"
   inkscape:current-layer="Layer_1" />

<path
   fill="#fff159"
   opacity="1.000000"
   stroke="none"
   d=" M341.468658,501.000000   C340.183441,499.330566 339.786407,498.863403 337.801331,498.407074   C326.711487,495.857697 316.782990,490.915710 307.602539,484.252045   C287.112549,469.379456 274.495514,449.743988 269.881470,424.676910   C266.132019,404.307098 268.892548,384.950958 277.920685,366.677094   C290.893677,340.418365 312.164612,323.813263 340.601868,317.135223   C362.114502,312.083313 383.541473,314.028839 403.165863,324.236511   C429.726013,338.051788 446.972229,359.586151 453.118469,389.564514   C457.430267,410.595215 455.001923,430.774933 445.522522,449.640198   C432.288239,475.978149 411.125916,492.964691 381.860992,499.120178   C381.304169,499.237305 380.867737,499.926971 380.687561,500.674744   C367.979095,501.000000 354.958221,501.000000 341.468658,501.000000  z"
   id="path1" />
<path
   fill="#DEB62A"
   opacity="1.000000"
   stroke="none"
   d=" M268.703430,41.876240   C277.315430,47.332382 277.576080,59.335606 274.755615,67.438179   C272.240509,74.663635 263.489746,79.996956 254.942230,79.998192   C223.503845,80.002731 192.065445,80.008598 160.627060,79.994949   C150.645767,79.990616 140.950211,71.450089 140.004593,61.891975   C138.729599,49.004673 144.940887,39.649467 156.101990,36.911118   C160.539688,35.822342 164.974136,35.671074 169.331635,36.103901   C178.785400,37.042934 182.523621,31.351204 183.095322,22.410599   C186.250641,18.785200 189.031982,15.452824 187.787537,10.193365   C188.437668,9.294505 188.921478,8.699369 189.678314,7.998338   C194.811829,7.077565 199.238586,5.412053 202.756744,1.243699   C206.361282,1.000000 209.722580,1.000000 213.541931,1.000000   C217.545563,3.695866 221.164963,6.269469 225.708557,7.877680   C226.326279,8.058775 226.608582,8.230321 226.966644,8.643669   C228.788528,12.751468 231.279739,16.269331 232.631134,20.707180   C232.873428,21.171679 232.913498,21.343218 232.893463,21.772068   C232.592789,23.273716 232.986725,24.402332 233.651184,25.757481   C233.893997,27.054419 233.954636,28.108706 234.061569,29.557306   C233.879700,32.085064 234.843842,33.472397 237.134293,34.200668   C237.475220,34.158226 237.751022,34.237614 237.794083,34.374493   C238.733704,37.896801 240.560715,38.764210 243.753067,36.386353   C248.027908,36.119007 252.055420,36.071346 256.541382,36.095177   C260.071442,39.494080 264.590088,39.936024 268.703430,41.876240  z"
   id="path2" />
<path
   fill="#DEB62A"
   opacity="1.000000"
   stroke="none"
   d=" M202.583344,1.000000   C202.552124,7.157704 197.938141,9.884276 190.270752,8.112941   C191.744492,4.239237 196.401245,4.490275 198.337891,1.246698   C199.388885,1.000000 200.777786,1.000000 202.583344,1.000000  z"
   id="path3" />
<path
   fill="#DEB62A"
   opacity="1.000000"
   stroke="none"
   d=" M225.905823,7.573469   C221.741806,9.162277 216.335617,6.351325 214.074631,1.351279   C215.388885,1.000000 216.777786,1.000000 218.583344,1.000000   C219.717224,4.750106 224.152512,4.480429 225.905823,7.573469  z"
   id="path4" />
<path
   fill="#DEB62A"
   opacity="1.000000"
   stroke="none"
   d=" M290.766663,51.423248   C307.691040,51.118977 324.381622,51.071285 341.536011,51.095131   C343.558380,52.665615 345.167236,53.908722 347.443787,54.365849   C352.743500,55.430042 356.843201,59.171108 362.121338,61.146072   C362.481873,61.160542 362.760254,61.247688 362.801453,61.387592   C364.035858,66.113808 367.334167,69.787575 368.631500,74.708199   C368.888885,76.826157 368.992767,78.652130 368.992981,80.478119   C369.001251,150.007187 369.001465,219.536240 368.992065,289.065308   C368.991821,290.889740 368.873657,292.714172 368.405212,294.685974   C367.313507,294.226196 366.504791,293.998474 365.279480,294.086853   C355.562592,293.924622 346.221741,295.098938 337.205811,297.299255   C331.986633,298.572937 333.003967,296.075867 333.003601,293.327759   C332.998322,254.685486 332.997925,216.043228 333.001068,177.400955   C333.002228,163.243301 333.015747,149.085632 333.095123,134.464172   C334.182281,132.857971 335.102539,131.705734 333.251282,130.204391   C298.124725,130.073669 263.295441,130.018387 228.466171,130.004547   C182.136032,129.986130 135.805542,130.081009 89.476303,129.877243   C84.735802,129.856415 83.901237,131.293671 83.907104,135.653366   C84.030106,226.980225 84.031723,318.307343 83.900398,409.634186   C83.894241,413.912445 84.747070,415.136261 89.263786,415.119598   C140.426224,414.931000 191.589966,415.083160 242.752197,414.869110   C247.772598,414.848114 249.143921,416.891724 248.964813,421.064514   C248.757370,425.897400 251.113129,430.313446 251.061584,435.527344   C251.206436,440.959778 254.102493,445.310425 254.234604,450.544373   C242.695801,450.888885 231.392075,450.989807 220.088333,450.992188   C170.701416,451.002563 121.314499,450.984283 71.463753,450.904877   C67.898880,449.525604 64.918236,447.918518 61.295105,447.089783   C52.123775,441.921570 47.087223,434.199310 47.065693,423.974121   C46.934254,361.556000 46.996964,299.137421 47.000927,236.718994   C47.004307,183.455322 47.015728,130.191650 47.095127,76.464172   C50.951988,71.900322 53.459587,67.320160 52.787796,61.186275   C54.419289,59.309952 55.884705,57.730259 57.650742,56.021500   C61.270988,55.396465 64.399757,54.519485 66.754410,51.386372   C85.973457,51.111660 104.946793,51.091190 123.919327,50.957779   C126.281593,50.941166 127.157471,51.618919 127.044220,54.043179   C126.873528,57.697098 127.009583,61.365353 127.061584,65.489594   C127.580757,71.544762 129.313354,76.548676 134.138123,80.211014   C134.474854,80.158089 134.757309,80.245392 134.800156,80.386856   C135.155167,84.244095 137.429825,86.210144 141.138290,87.182251   C141.481705,87.160477 141.753937,87.239914 141.795486,87.375488   C144.262421,91.925880 153.124710,95.389320 157.741241,93.395966   C191.357651,93.118980 224.714935,93.071289 258.536011,93.095131   C264.646881,96.072357 273.416656,92.442902 277.766541,85.183289   C277.974884,84.542107 278.131897,84.275871 278.655518,84.023911   C286.113647,80.607483 292.253113,70.242073 291.118591,62.398602   C290.598145,58.800594 291.041534,55.229805 290.766663,51.423248  z"
   id="path5" />
<path
   fill="#DEB62A"
   opacity="1.000000"
   stroke="none"
   d=" M176.000031,172.318466   C176.306808,166.870117 178.210052,165.032776 183.488907,165.017517   C199.814789,164.970322 216.140900,165.000046 232.466919,165.000015   C253.790695,164.999954 275.114471,164.993439 296.438263,165.003891   C303.108673,165.007156 304.964478,166.856232 304.999969,173.433868   C305.071716,186.735413 304.809875,187.000000 291.575012,187.000000   C256.757263,187.000000 221.939377,186.941086 187.121933,187.041382   C178.410812,187.066467 175.063705,186.616531 175.988724,175.769577   C176.073349,174.777222 176.000000,173.771393 176.000031,172.318466  z"
   id="path6" />
<path
   fill="#DEB62A"
   opacity="1.000000"
   stroke="none"
   d=" M186.160202,251.000000   C177.690613,251.784698 175.670120,249.086899 175.902725,241.486511   C176.268280,229.541779 176.532272,229.000000 188.476410,229.000000   C223.919281,229.000000 259.362152,228.998581 294.805023,229.001099   C302.628113,229.001663 304.999237,231.382202 304.999969,239.208221   C305.000122,240.705811 305.033569,242.204285 304.993561,243.700806   C304.850525,249.046783 302.847748,250.995895 297.459106,250.996780   C260.518646,251.002914 223.578171,251.000000 186.160202,251.000000  z"
   id="path7" />
<path
   fill="#DEB62A"
   opacity="1.000000"
   stroke="none"
   d=" M261.468048,308.997803   C235.893265,308.999664 210.768265,309.004974 185.643280,308.996735   C178.546188,308.994415 176.162491,306.396606 175.961243,299.240387   C175.680878,289.271271 174.827240,285.819275 189.392349,285.945801   C212.685287,286.148254 235.981247,285.995300 259.275940,286.002777   C266.471741,286.005096 268.997589,288.534637 269.000000,295.679871   C269.003754,306.753113 268.965576,306.824921 261.468048,308.997803  z"
   id="path8" />
<path
   fill="#DEB62A"
   opacity="1.000000"
   stroke="none"
   d=" M186.157623,351.000000   C206.920670,351.000000 227.203629,350.994873 247.486603,351.003479   C252.849014,351.005768 254.736145,352.973572 255.021027,358.314545   C255.711212,371.254608 254.004623,373.258972 240.816345,373.068848   C222.033569,372.798035 203.243958,373.008575 184.457275,372.995331   C177.876694,372.990692 176.029541,371.108795 176.000839,364.491119   C175.995071,363.161102 176.107071,361.820923 175.982300,360.502686   C175.265594,352.930084 177.691895,350.214386 186.157623,351.000000  z"
   id="path9" />
<path
   fill="#DEB62A"
   opacity="1.000000"
   stroke="none"
   d=" M145.255035,222.246216   C147.418427,219.749695 149.227921,217.409302 151.261108,215.282806   C154.542099,211.851273 159.308594,211.223801 162.136627,213.669418   C164.752075,215.931213 164.799301,222.270187 161.997314,225.430847   C155.668533,232.569794 149.205872,239.589890 142.830719,246.688004   C140.973312,248.756073 139.356461,251.052414 137.403198,253.019562   C133.520798,256.929565 129.434937,257.064117 125.216728,253.738022   C120.815086,250.267288 116.255310,246.986603 111.993500,243.354355   C110.343849,241.948395 108.112389,240.770966 107.971428,238.007919   C107.796768,234.584534 107.688469,230.886337 111.286270,229.435760   C114.527176,228.129089 117.986313,228.726074 120.919930,231.337723   C129.518860,238.992966 129.606857,238.980774 137.485336,230.969315   C140.128708,228.281326 142.503799,225.329544 145.255035,222.246216  z"
   id="path10" />
<path
   fill="#DEB62A"
   opacity="1.000000"
   stroke="none"
   d=" M134.705750,377.087463   C127.688446,380.539215 124.631889,374.409882 120.372719,371.747864   C117.041878,369.666046 114.137215,366.907227 111.014282,364.486511   C107.826126,362.015289 106.782715,356.450775 109.003479,353.533630   C111.412415,350.369324 116.494530,349.865784 120.034431,352.605103   C122.494820,354.509003 124.777412,356.642273 127.145157,358.666412   C129.426529,360.616699 130.956970,360.590942 133.141388,357.902771   C138.943726,350.762421 145.173386,343.960785 151.397171,337.174927   C154.675003,333.601074 159.653580,333.309357 162.639816,336.130066   C164.735138,338.109283 164.724442,344.306000 162.292755,347.107208   C156.577347,353.691223 150.903397,360.336121 144.789917,366.539734   C141.444595,369.934357 139.267197,374.397552 134.705750,377.087463  z"
   id="path11" />
<path
   fill="#DEB62A"
   opacity="1.000000"
   stroke="none"
   d=" M159.291382,289.210815   C151.864166,297.611633 144.651337,305.718353 137.562622,313.932159   C134.763657,317.175385 130.592545,318.158630 127.130493,315.609009   C121.166428,311.216827 115.182861,306.807556 109.613510,301.940796   C106.708878,299.402649 107.168900,295.591858 109.132988,292.504120   C111.105385,289.403320 116.388611,288.922241 119.755531,291.339813   C122.012253,292.960236 124.145020,294.787598 126.153328,296.710266   C128.256042,298.723328 129.936035,299.151276 132.407318,296.970551   C137.771774,292.236816 141.910843,286.413422 146.793869,281.258636   C148.681870,279.265594 150.469330,277.048401 152.468033,275.131592   C155.491241,272.232300 158.991577,272.141266 162.213150,274.791931   C165.309799,277.339783 164.345169,280.879547 163.364166,283.913208   C162.751511,285.807770 160.868454,287.291504 159.291382,289.210815  z"
   id="path12" />
<path
   fill="#DEB62A"
   opacity="1.000000"
   stroke="none"
   d=" M149.771088,175.727646   C145.132416,180.699524 140.737457,185.410889 136.352875,190.131912   C133.312912,193.405167 130.160492,194.000092 126.466255,190.997925   C120.987396,186.545502 115.310226,182.337387 109.821869,177.896255   C107.445114,175.972992 106.971916,169.792908 109.321083,167.518860   C111.871216,165.050247 115.156708,163.835037 118.570358,166.255081   C120.568024,167.671310 122.491142,169.214447 124.317787,170.846039   C129.722290,175.673416 131.069031,175.605743 135.366043,170.124176   C140.659103,163.371994 146.367981,156.989075 152.521545,151.010376   C155.377655,148.235413 159.538025,148.109756 162.152313,150.639801   C164.602280,153.010818 164.837952,158.311996 162.575699,160.942139   C158.401611,165.794998 154.205933,170.629257 149.771088,175.727646  z"
   id="path13" />
<path
   fill="#DEB62A"
   opacity="1.000000"
   stroke="none"
   d=" M290.568115,51.117157   C296.394318,60.943745 292.597382,75.110825 285.790192,82.659584   C284.073608,84.563126 281.818695,83.815842 279.314209,83.965698   C285.836243,76.083870 290.212006,67.306160 289.091797,56.386452   C288.918823,54.700352 287.922729,52.452686 290.568115,51.117157  z"
   id="path14" />
<path
   fill="#DEB62A"
   opacity="1.000000"
   stroke="none"
   d=" M277.598083,84.942467   C279.919434,86.344215 281.705200,86.990295 278.266479,89.652931   C274.222565,92.784164 270.138458,95.148315 265.277191,96.441231   C262.481812,97.184708 260.365601,96.701851 259.096191,93.500244   C265.874176,92.215309 271.751465,89.037781 277.598083,84.942467  z"
   id="path15" />
<path
   fill="#DEB62A"
   opacity="1.000000"
   stroke="none"
   d=" M362.285675,60.907204   C360.888702,61.876411 359.298584,62.026588 357.740479,61.080013   C353.907654,58.751476 349.897583,56.857662 345.501831,55.822102   C343.467834,55.342930 342.737671,53.633598 342.083252,51.510628   C349.613190,52.387703 356.462433,55.226749 362.285675,60.907204  z"
   id="path16" />
<path
   fill="#DEB62A"
   opacity="1.000000"
   stroke="none"
   d=" M52.633003,61.059830   C56.057503,62.554314 56.586479,65.003296 54.579403,67.712097   C52.476665,70.549988 53.793526,76.184021 47.551983,75.996750   C47.349625,70.543159 50.193115,66.012779 52.633003,61.059830  z"
   id="path17" />
<path
   fill="#DEB62A"
   opacity="1.000000"
   stroke="none"
   d=" M157.597641,93.095184   C158.072342,96.303749 156.632263,97.467140 153.656998,96.344078   C150.422241,95.123070 147.206604,93.842651 144.033768,92.469887   C142.264313,91.704308 140.924255,90.509987 141.702362,87.880157   C146.800125,89.783775 151.591507,92.534859 157.597641,93.095184  z"
   id="path18" />
<path
   fill="#DEB62A"
   opacity="1.000000"
   stroke="none"
   d=" M187.633148,10.059654   C189.686813,11.179154 191.851837,12.443758 190.337631,15.032588   C188.731354,17.778776 188.933014,22.332695 183.550140,21.996889   C182.901215,17.496584 185.837570,14.120505 187.633148,10.059654  z"
   id="path19" />
<path
   fill="#DEB62A"
   opacity="1.000000"
   stroke="none"
   d=" M268.902649,41.570190   C264.346130,43.333054 259.383911,41.230042 257.083008,36.510002   C261.368225,36.826504 265.581573,37.844898 268.902649,41.570190  z"
   id="path20" />
<path
   fill="#DEB62A"
   opacity="1.000000"
   stroke="none"
   d=" M66.626091,51.095932   C66.522438,56.801579 65.031265,57.718140 58.272163,56.113396   C59.866074,52.816864 62.973274,51.774940 66.626091,51.095932  z"
   id="path21" />
<path
   fill="#DEB62A"
   opacity="1.000000"
   stroke="none"
   d=" M134.276703,79.899406   C132.880569,80.863762 131.457397,80.658592 130.633286,79.043640   C128.620239,75.098793 125.909706,71.350182 126.906876,66.234505   C129.057083,70.705338 130.498352,75.717613 134.276703,79.899406  z"
   id="path22" />
<path
   fill="#DEB62A"
   opacity="1.000000"
   stroke="none"
   d=" M254.380707,450.894806   C252.916855,446.056763 250.398590,441.610504 250.906433,436.233002   C253.549820,439.915070 253.292603,444.876678 255.872513,448.822021   C256.295685,449.469116 256.276520,450.837341 254.380707,450.894806  z"
   id="path23" />
<path
   fill="#DEB62A"
   opacity="1.000000"
   stroke="none"
   d=" M368.903992,74.612808   C365.587250,71.331734 363.526794,67.085579 362.737000,61.899643   C365.877502,65.281662 368.217957,69.371124 368.903992,74.612808  z"
   id="path24" />
<path
   fill="#DEB62A"
   opacity="1.000000"
   stroke="none"
   d=" M243.631836,36.095451   C243.909149,38.075092 243.800903,40.140511 241.083008,39.643162   C238.814301,39.228004 236.946564,38.151943 237.702789,34.884724   C239.569183,35.290657 241.220871,36.358150 243.631836,36.095451  z"
   id="path25" />
<path
   fill="#DEB62A"
   opacity="1.000000"
   stroke="none"
   d=" M232.903976,20.614044   C229.822388,17.774261 228.011459,13.939529 227.060791,9.272234   C230.374023,11.958040 232.262314,15.785468 232.903976,20.614044  z"
   id="path26" />
<path
   fill="#DEB62A"
   opacity="1.000000"
   stroke="none"
   d=" M141.288208,86.910454   C136.340408,88.044655 135.361450,87.205559 134.735947,80.907532   C136.117233,83.397827 139.255798,84.366615 141.288208,86.910454  z"
   id="path27" />
<path
   fill="#DEB62A"
   opacity="1.000000"
   stroke="none"
   d=" M61.126312,447.430115   C65.101555,445.363739 67.666893,448.553558 70.857384,450.533997   C67.313362,451.225922 64.498314,448.878235 61.126312,447.430115  z"
   id="path28" />
<path
   fill="#DEB62A"
   opacity="1.000000"
   stroke="none"
   d=" M332.973785,130.500443   C334.462341,128.953461 335.875214,129.077988 336.518341,130.903381   C337.306335,133.139954 335.802887,133.831711 333.526276,133.985306   C333.108978,132.963715 333.051270,131.927048 332.973785,130.500443  z"
   id="path29" />
<path
   fill="#DEB62A"
   opacity="1.000000"
   stroke="none"
   d=" M237.290283,33.916168   C234.107071,35.117474 233.063690,33.680237 233.907806,30.227564   C235.107010,31.192450 236.106186,32.433277 237.290283,33.916168  z"
   id="path30" />
<path
   fill="#DEB62A"
   opacity="1.000000"
   stroke="none"
   d=" M233.904297,25.645576   C232.164398,25.325203 231.830002,24.139444 232.675430,22.295952   C233.500671,23.016220 234.282898,23.962837 233.904297,25.645576  z"
   id="path31" />
<path
   fill="#DEB62A"
   opacity="1.000000"
   stroke="none"
   d=" M365.116486,294.421234   C365.959442,293.242157 366.922424,292.957367 367.886719,294.569702   C367.092163,294.798676 366.184387,294.764008 365.116486,294.421234  z"
   id="path32" />
<path
   fill="#000"
   opacity="1.000000"
   stroke="none"
   d=" M325.755554,438.257690   C320.285767,433.784973 314.841370,429.820343 309.914459,425.292633   C303.489838,419.388489 303.382660,412.258575 309.057159,405.786530   C313.357361,400.881927 321.820740,400.570862 327.619385,405.124268   C335.453827,411.276337 343.325623,417.382599 351.066528,423.650360   C352.765472,425.026001 353.022522,424.944122 354.589783,423.141541   C364.217072,412.069000 374.293427,401.388489 384.022400,390.402191   C390.032684,383.615173 395.798798,376.615479 402.256561,370.232391   C407.833191,364.720337 415.710358,364.420105 421.075836,369.569641   C426.147278,374.436981 426.523590,383.363831 421.733032,388.745972   C410.344940,401.540497 398.867065,414.255096 387.465607,427.037781   C379.799530,435.632568 372.117065,444.215424 364.604736,452.943695   C359.848297,458.469971 351.814789,459.251984 345.566315,454.090912   C339.142242,448.784821 332.537048,443.698090 325.755554,438.257690  z"
   id="path33" />
<path
   fill="#000"
   opacity="1.000000"
   stroke="none"
   d=" M198.091644,29.305336   C197.807083,20.133261 201.626846,16.020262 210.544495,16.066252   C217.248642,17.473618 218.546783,19.274139 218.899902,27.130142   C219.186783,33.512695 214.962631,37.930763 208.609268,38.004925   C205.906754,38.036472 203.672104,37.394245 202.271271,34.307030   C202.060547,33.905396 202.024185,33.975094 202.059052,33.956947   C200.254425,32.978596 198.113739,32.301266 198.091644,29.305336  z"
   id="path34" />
<path
   fill="#DEB62A"
   opacity="1.000000"
   stroke="none"
   d=" M202.057617,34.300018   C208.272781,37.382446 214.303406,36.114868 217.077667,30.748947   C220.065811,24.969393 217.931000,19.807142 211.121246,16.427120   C216.989548,14.855188 222.077606,20.284681 220.426147,26.201191   C220.303726,26.639759 220.131073,27.293657 220.343094,27.562313   C224.445908,32.761269 219.457504,35.142181 216.804871,37.691494   C213.545212,40.824177 209.165207,40.529945 205.018524,39.336014   C202.804886,38.698654 201.966263,36.930939 202.057617,34.300018  z"
   id="path35" />
<path
   fill="#DEB62A"
   opacity="1.000000"
   stroke="none"
   d=" M197.913330,29.227100   C199.353683,30.415321 200.594284,31.874361 201.964401,33.636101   C199.081543,33.989613 196.812225,33.307484 197.913330,29.227100  z"
   id="path36" />
<path
   style="vector-effect:non-scaling-stroke;fill:#00ffff;stroke:#000000;stroke-width:0.271444;-inkscape-stroke:hairline"
   d="m 180.4937,372.4611 c -1.74549,-0.47515 -2.82423,-1.33318 -3.54311,-2.8182 -0.55574,-1.14801 -0.6395,-1.83421 -0.80322,-6.58063 -0.26711,-7.74338 0.1417,-9.47159 2.60187,-10.99929 l 1.31137,-0.81434 h 35.18055 35.18055 l 1.34921,0.69434 c 1.11251,0.57253 1.49221,0.97382 2.16428,2.28737 l 0.81507,1.59302 v 5.4488 c 0,3.93889 -0.10837,5.8224 -0.39108,6.79706 -0.51586,1.7785 -2.11369,3.37572 -4.08775,4.08618 -1.45419,0.52337 -2.36303,0.53868 -35.01628,0.59002 -25.98891,0.0409 -33.80162,-0.023 -34.76146,-0.28433 z"
   id="path37" /><path
   style="vector-effect:non-scaling-stroke;fill:#00ffff;stroke:#000000;stroke-width:0.271444;-inkscape-stroke:hairline"
   d="m 181.1542,308.26882 c -2.6994,-0.93299 -3.83447,-2.19549 -4.57286,-5.08627 -0.57556,-2.25329 -0.70039,-10.87982 -0.18235,-12.60166 0.80339,-2.67024 3.23344,-3.94242 8.20943,-4.2978 1.55305,-0.11092 19.9247,-0.13595 40.82589,-0.0556 37.90361,0.14567 38.00534,0.14753 39.22367,0.71692 3.57327,1.66997 4.41632,4.3942 4.06542,13.13705 -0.23139,5.76536 -0.75384,6.63355 -4.80344,7.98219 l -2.11399,0.70402 -39.62991,-0.009 c -37.2153,-0.008 -39.71472,-0.0382 -41.02186,-0.48996 z"
   id="path38" /><path
   style="vector-effect:non-scaling-stroke;fill:#00ffff;stroke:#000000;stroke-width:0.271444;-inkscape-stroke:hairline"
   d="m 180.60267,250.69194 c -2.09358,-0.50329 -3.59148,-1.99756 -4.20406,-4.19385 -0.38114,-1.36652 -0.34976,-8.97384 0.0475,-11.50857 0.43431,-2.77126 1.21394,-4.12627 2.84273,-4.94066 l 1.35722,-0.67861 h 59.31053 59.31053 l 1.35384,0.62401 c 3.53318,1.6285 4.33028,3.87565 4.16977,11.75529 -0.0873,4.28691 -0.1545,4.84023 -0.7295,6.00914 -0.34833,0.70811 -0.95875,1.51394 -1.3565,1.79073 -1.91513,1.33276 1.43638,1.26204 -61.93381,1.30681 -32.62079,0.023 -59.69649,-0.0509 -60.16823,-0.16429 z"
   id="path39" /><path
   style="vector-effect:non-scaling-stroke;fill:#00ffff;stroke:#000000;stroke-width:0.271444;-inkscape-stroke:hairline"
   d="m 181.28625,186.6126 c -2.64447,-0.44666 -4.26248,-1.72605 -4.9009,-3.87521 -0.4055,-1.36509 -0.34817,-11.01415 0.0768,-12.93258 0.3814,-1.72158 1.39943,-3.15293 2.75907,-3.87925 l 1.15333,-0.61611 59.17481,-0.0719 c 41.34613,-0.0503 59.59913,0.0158 60.58315,0.21935 1.93734,0.40069 3.08475,1.23917 3.88482,2.83885 0.63547,1.27057 0.68454,1.67007 0.77191,6.28369 0.18047,9.531 -0.67449,11.3193 -5.7454,12.01749 -2.50167,0.34444 -115.72193,0.35953 -117.75763,0.0157 z"
   id="path40" /><path
   style="vector-effect:non-scaling-stroke;fill:#00ffff;stroke:#000000;stroke-width:0.271444;-inkscape-stroke:hairline"
   d="m 128.71127,192.18028 c -0.6461,-0.2932 -3.15017,-2.09775 -5.56461,-4.0101 -2.41443,-1.91235 -6.2887,-4.95944 -8.60948,-6.77131 -5.15861,-4.0274 -5.53931,-4.40185 -6.0757,-5.97607 -0.62264,-1.82736 -0.56292,-5.04608 0.11979,-6.45637 0.85969,-1.77589 3.24069,-3.47487 5.34029,-3.81061 2.30699,-0.3689 4.30167,0.72374 9.72122,5.32508 3.60313,3.05915 5.65145,4.21671 6.98835,3.94934 1.36431,-0.27287 2.44776,-1.30513 6.23808,-5.94342 7.74591,-9.47879 15.58306,-17.70661 17.88786,-18.77953 4.64775,-2.1636 9.19516,0.96928 9.19516,6.33489 0,2.95325 -0.30643,3.4324 -7.51538,11.75141 -6.61914,7.63837 -18.27074,20.34034 -20.95521,22.84427 -0.76986,0.71808 -1.82077,1.48152 -2.33534,1.69652 -1.29239,0.54 -3.03929,0.4793 -4.43503,-0.1541 z"
   id="path41" /><path
   style="vector-effect:non-scaling-stroke;fill:#00ffff;stroke:#000000;stroke-width:0.271444;-inkscape-stroke:hairline"
   d="m 129.20738,255.73217 c -1.60128,-0.52245 -3.21235,-1.59758 -8.43927,-5.63189 -13.08727,-10.10119 -12.91908,-9.9076 -12.67427,-14.58777 0.17968,-3.43514 0.80276,-4.60555 3.04912,-5.72755 1.33722,-0.66791 1.94467,-0.80607 3.52878,-0.80256 2.50531,0.006 4.20028,0.79279 7.07093,3.28418 5.12674,4.44941 6.66245,5.30184 8.5388,4.73967 2.51885,-0.75466 5.91312,-4.06118 15.08348,-14.69355 3.02599,-3.50841 5.9725,-6.83061 6.5478,-7.38266 3.26868,-3.13661 8.62738,-3.37502 10.69188,-0.4757 1.40292,1.97021 1.7084,5.00438 0.79996,7.94556 -0.62746,2.03148 -0.43301,1.79647 -12.61741,15.24939 -4.19172,4.62813 -8.93297,9.96597 -10.53611,11.86187 -3.19068,3.77336 -4.31433,4.81571 -6.15377,5.70852 -1.29434,0.62824 -3.74724,0.88531 -4.88992,0.51249 z"
   id="path42" /><path
   style="vector-effect:non-scaling-stroke;fill:#00ffff;stroke:#000000;stroke-width:0.271444;-inkscape-stroke:hairline"
   d="m 130.04495,316.74902 c -1.47212,-0.2852 -2.05152,-0.66414 -8.84517,-5.78493 -6.09775,-4.59625 -11.4255,-8.95378 -12.28801,-10.05028 -1.89156,-2.40472 -1.29836,-6.80727 1.25079,-9.28297 1.22896,-1.19355 3.39628,-1.85072 5.41612,-1.64225 2.63811,0.27228 3.5862,0.89381 10.92388,7.16132 1.62123,1.38478 2.9043,1.70289 4.26028,1.05627 2.03111,-0.96857 4.30544,-3.30567 13.36393,-13.73278 5.1074,-5.87907 9.32,-10.10578 10.72333,-10.75926 2.6704,-1.24352 5.73229,-0.54061 7.84847,1.80175 1.67307,1.8519 1.86343,3.94022 0.70194,7.70069 -0.49341,1.59748 -0.95157,2.19628 -6.28025,8.20824 -3.1614,3.56678 -9.10815,10.31893 -13.21498,15.00476 -7.5697,8.63691 -8.91359,9.90081 -10.87774,10.23034 -0.5335,0.0895 -1.15322,0.1984 -1.37716,0.24199 -0.22394,0.0436 -0.94639,-0.0252 -1.60543,-0.15289 z"
   id="path43" /><path
   style="vector-effect:non-scaling-stroke;fill:#00ffff;stroke:#000000;stroke-width:0.271444;-inkscape-stroke:hairline"
   d="m 127.69988,377.17821 c -0.73846,-0.36958 -2.38093,-1.5671 -3.64993,-2.66117 -1.26901,-1.09407 -2.91803,-2.40176 -3.6645,-2.90598 -1.64951,-1.1142 -3.99375,-2.9307 -7.64139,-5.92116 -3.41997,-2.8038 -4.45505,-4.48075 -4.65107,-7.53528 -0.15903,-2.47801 0.24092,-3.69066 1.69772,-5.14746 2.1654,-2.1654 5.77804,-2.63742 8.69992,-1.13671 0.74356,0.3819 3.12311,2.22529 5.28787,4.09642 4.32323,3.73681 5.34316,4.37872 6.5681,4.13373 1.14029,-0.22805 1.78523,-0.80565 4.4628,-3.99682 4.69138,-5.59127 14.4404,-16.5171 16.96307,-19.0107 3.77039,-3.72695 9.42055,-3.53719 11.56653,0.38846 0.7411,1.35571 0.6788,6.14903 -0.10132,7.79533 -0.7388,1.55911 -9.64687,11.80171 -16.56464,19.04623 -1.66561,1.74428 -4.20485,4.64084 -5.64276,6.4368 -2.98676,3.73051 -4.50023,5.13334 -6.77668,6.28131 -2.14332,1.08085 -4.56657,1.1315 -6.55372,0.137 z"
   id="path44" /><path
   style="vector-effect:non-scaling-stroke;fill:#00ffff;stroke:#000000;stroke-width:0.271444;-inkscape-stroke:hairline"
   d="m 351.61452,457.01512 c -2.19908,-0.56052 -4.11462,-1.62325 -6.74951,-3.74455 -1.34106,-1.07967 -8.48472,-6.77561 -15.87478,-12.65764 -16.43149,-13.07845 -19.42583,-15.61461 -21.16894,-17.92978 -3.22695,-4.28598 -3.54275,-8.86965 -0.93267,-13.53692 3.85799,-6.89872 11.19781,-8.99989 18.47313,-5.2883 0.98511,0.50256 14.04325,10.61472 22.47722,17.40624 4.09089,3.29421 4.61032,3.6321 5.26441,3.4245 0.28825,-0.0915 1.54627,-1.34614 2.79559,-2.78812 1.24933,-1.44197 5.92247,-6.66023 10.38476,-11.59612 15.12571,-16.73105 17.40817,-19.27939 24.10365,-26.91144 3.67777,-4.19221 8.25516,-9.21494 10.17199,-11.16162 3.09863,-3.14687 3.74103,-3.66377 5.79242,-4.6608 5.39295,-2.62109 10.52409,-1.80114 14.62921,2.33775 2.80351,2.82658 3.90995,5.5778 3.90348,9.70623 -0.004,2.68554 -0.72266,5.28403 -2.02638,7.32899 -0.38071,0.59718 -7.69072,8.90337 -16.24447,18.4582 -24.38266,27.2363 -30.37363,33.96836 -36.71049,41.2516 -6.26985,7.20621 -8.15518,8.95474 -10.69513,9.91905 -1.95502,0.74224 -5.58757,0.95403 -7.59349,0.44273 z"
   id="path45" /><path
   style="vector-effect:non-scaling-stroke;fill:#5f8dd3;stroke:#000000;stroke-width:0.271444;-inkscape-stroke:hairline"
   d="m 205.56289,35.414188 c -2.27564,-0.613029 -3.32436,-1.143528 -3.57781,-1.809853 -0.13052,-0.343134 -1.06292,-1.515534 -2.072,-2.605335 l -1.8347,-1.981455 0.17905,-2.147068 c 0.48034,-5.75962 2.85354,-8.92408 7.62208,-10.163374 0.8898,-0.231252 2.31852,-0.420458 3.17492,-0.420458 1.30479,0 1.83434,0.162319 3.26816,1.001778 2.1821,1.277555 4.42071,3.510951 5.18125,5.1692 0.4512,0.983782 0.59433,1.813994 0.59742,3.465287 0.004,1.870873 -0.11255,2.417635 -0.83813,3.948797 -1.44299,3.045068 -3.24994,4.686272 -6.08726,5.528864 -1.75183,0.520238 -3.71465,0.525 -5.61298,0.01362 z"
   id="path46" /><path
   style="vector-effect:non-scaling-stroke;fill:#87aade;stroke:#000000;stroke-width:0.271444;-inkscape-stroke:hairline"
   d="m 71.307305,450.69566 c -0.114478,-0.1145 -0.633968,-0.17948 -1.154424,-0.14441 -0.520455,0.035 -1.462799,-0.0691 -2.094098,-0.23152 -1.355718,-0.34872 -6.498342,-2.74155 -6.305835,-2.93406 0.0731,-0.0731 -0.558819,-0.54962 -1.404273,-1.05891 -2.436742,-1.46788 -4.450236,-3.12114 -6.622535,-5.4377 -2.276856,-2.42804 -3.69209,-4.6703 -4.86604,-7.70961 -1.765787,-4.57152 -1.62883,10.7183 -1.62883,-181.84177 0,-116.39376 0.09094,-175.086054 0.271444,-175.197615 0.149295,-0.09227 0.271445,-0.793521 0.271445,-1.558338 0,-2.201121 0.992892,-5.318016 2.981397,-9.359227 1.73904,-3.534226 1.989652,-3.890048 4.54629,-6.454856 1.488186,-1.492943 2.937869,-2.914719 3.221517,-3.159504 0.283649,-0.244784 0.943249,-0.903886 1.465779,-1.464669 0.52253,-0.560784 1.560804,-1.28834 2.307275,-1.616791 1.698999,-0.747569 4.034646,-1.335063 4.13279,-1.039535 0.04072,0.122624 1.936952,0.148551 4.213841,0.05761 2.276888,-0.09094 15.587625,-0.213086 29.579412,-0.271444 25.37556,-0.105839 25.44103,-0.104702 25.99823,0.451782 0.5313,0.530608 0.56254,0.908889 0.63891,7.736156 l 0.0803,7.178268 1.303,2.985885 c 1.84668,4.231719 2.91449,6.292456 4.33777,8.371368 0.68269,0.997183 1.24126,1.934023 1.24126,2.081868 0,0.147842 0.15269,0.271449 0.33931,0.274679 0.18662,0.0032 0.52253,0.397557 0.74647,0.876279 0.22394,0.478721 1.07899,1.400869 1.90011,2.049221 3.40492,2.688507 4.12912,3.380011 3.77137,3.60111 -0.24401,0.150809 -0.12719,0.272242 0.38577,0.400988 0.40468,0.101566 0.82584,0.342682 0.9359,0.535809 0.24227,0.425106 7.22253,3.342525 10.24355,4.281319 1.19435,0.371149 2.84338,0.764403 3.66449,0.873898 0.82112,0.109493 1.55402,0.27591 1.62867,0.36981 0.0746,0.0939 22.67236,0.06959 50.21715,-0.05402 33.11944,-0.148631 50.38366,-0.133197 50.97377,0.04557 2.27449,0.68902 10.86958,-2.773537 16.77274,-6.756949 1.09456,-0.7386 2.05239,-1.34291 2.12851,-1.34291 0.16338,0 1.13416,-0.83392 2.58032,-2.216555 2.39158,-2.286531 6.13354,-8.773717 7.61983,-13.210007 1.48494,-4.43222 2.01161,-10.101197 1.34037,-14.427423 -0.2386,-1.5378 -0.21801,-2.001066 0.11782,-2.650485 0.47712,-0.922652 1.15226,-1.544214 1.34214,-1.235638 0.0734,0.11922 2.19132,0.138228 4.70658,0.04224 6.72149,-0.256507 46.45644,-0.269546 46.61358,-0.0153 0.0739,0.119541 0.63578,0.246934 1.24867,0.283097 3.14609,0.185633 9.28276,2.293181 12.75676,4.381114 2.6481,1.59155 5.97915,4.257613 5.97915,4.785504 0,0.207003 0.18323,0.376369 0.40717,0.376369 0.22394,0 0.40716,0.105352 0.40716,0.234116 0,0.128764 0.66863,1.1365 1.48581,2.239414 2.88767,3.897355 4.16004,7.035705 4.44465,10.962952 0.24818,3.424869 0.22258,217.48525 -0.0262,218.6482 -0.19606,0.91668 -0.25089,0.95292 -1.5608,1.03162 -0.81935,0.0492 -1.3576,-0.0315 -1.3576,-0.20358 0,-0.18396 -1.19883,-0.28515 -3.37826,-0.28515 -6.52817,0 -14.57049,0.93466 -22.30114,2.5918 -5.27657,1.13109 -5.92114,1.15963 -6.49261,0.28748 -0.3848,-0.58729 -0.41279,-8.40516 -0.29221,-81.63681 0.0733,-44.54302 0.11978,-81.47591 0.10323,-82.07309 -0.0165,-0.59717 -0.0351,-1.52873 -0.0413,-2.07011 l -0.0112,-0.98434 -97.18904,-0.18883 c -53.45397,-0.10386 -108.99811,-0.14951 -123.43144,-0.10144 -26.046292,0.0867 -26.248135,0.0916 -27.008686,0.64958 -0.421452,0.3092 -0.97985,0.98102 -1.240885,1.49294 -0.450021,0.88255 -0.474625,8.1693 -0.475027,140.68344 -3.88e-4,128.78597 0.0344,139.82606 0.443347,140.68784 0.244075,0.51436 0.824286,1.14357 1.28936,1.39827 0.791568,0.43347 5.926655,0.46305 80.378711,0.46305 h 79.53311 l 1.06826,0.5604 c 1.67491,0.87867 2.11846,2.02926 2.33847,6.06612 0.11758,2.15725 0.45534,4.56043 0.91621,6.51879 0.40148,1.70602 0.83236,4.28062 0.95751,5.72133 0.16966,1.95326 0.40521,2.97012 0.92618,3.99819 0.38425,0.75831 1.07939,2.7643 1.54473,4.45781 0.46535,1.69352 1.27859,3.98746 1.80721,5.0977 1.01834,2.13873 0.99651,2.61593 -0.13889,3.03593 -0.42774,0.15826 -0.59774,0.11819 -0.59774,-0.14085 0,-0.2877 -0.23662,-0.30594 -1.15364,-0.0888 -1.37635,0.32584 -181.559064,0.61843 -181.882165,0.29533 z"
   id="path47" /><path
   style="vector-effect:non-scaling-stroke;fill:#afc6e9;stroke:#000000;stroke-width:0.271444;-inkscape-stroke:hairline"
   d="m 70.030517,450.35546 c -0.822249,-0.1186 -1.982673,-0.37397 -2.578719,-0.56748 -1.206252,-0.39164 -5.350422,-2.40902 -5.562547,-2.70785 -0.07465,-0.10516 -1.112921,-0.84343 -2.307275,-1.64061 -2.616056,-1.74612 -5.99705,-4.95068 -7.63797,-7.23941 -0.660504,-0.92126 -1.758233,-2.86762 -2.439399,-4.32527 -1.089443,-2.33135 -1.272299,-2.99544 -1.519477,-5.51827 -0.377781,-3.85584 -0.606208,-322.1807 -0.244858,-341.22302 0.303089,-15.972108 0.202027,-15.313079 3.330068,-21.715526 l 1.922981,-3.935939 4.10866,-4.043715 c 4.196489,-4.130155 5.462252,-5.013001 7.908877,-5.516292 0.597177,-0.122845 14.479058,-0.26636 30.848626,-0.318923 l 29.762846,-0.09557 0.40335,0.644145 c 0.31812,0.508032 0.43679,2.137888 0.56159,7.713246 l 0.15823,7.069102 1.23549,2.786562 c 2.17007,4.894408 4.91977,9.863728 5.9553,10.76253 0.17201,0.149295 0.59294,0.67057 0.9354,1.158394 0.34245,0.487823 1.66775,1.759858 2.94509,2.826745 1.27734,1.066889 2.37561,2.143124 2.4406,2.391637 0.25531,0.976333 8.19451,4.509245 13.30095,5.918873 l 2.65774,0.733667 52.72541,-0.06027 52.72541,-0.06027 2.09441,-0.70307 c 5.20972,-1.748844 13.24972,-6.315909 16.22435,-9.216132 2.08137,-2.029291 4.05642,-5.006205 6.12556,-9.232779 2.65488,-5.423023 3.80148,-11.089861 3.37777,-16.693812 -0.31838,-4.210785 -0.29389,-4.570891 0.35505,-5.219831 l 0.57852,-0.578517 24.23769,-0.121365 c 21.67038,-0.108511 24.59709,-0.07281 27.63075,0.33702 3.74568,0.506025 8.47079,1.933957 11.5693,3.496242 2.40239,1.211306 5.86751,3.679075 7.45594,5.309928 1.63971,1.683498 4.17392,5.394344 5.31159,7.777796 1.85321,3.882476 1.71189,-5.61358 1.71708,115.390574 0.004,96.73028 -0.043,109.73761 -0.3987,110.03285 -0.26417,0.21923 -0.75613,0.26924 -1.42508,0.14487 -4.97378,-0.92471 -15.06881,-0.0933 -26.77142,2.2047 -3.72318,0.73113 -5.24129,0.92917 -5.5646,0.72593 -0.34854,-0.2191 -0.49199,-0.97712 -0.66387,-3.50819 -0.12063,-1.77579 -0.14561,-39.33421 -0.0555,-83.46317 l 0.16376,-80.23446 -85.1552,-0.18085 C 149.0796,129.4486 99.283582,129.46465 91.413623,129.71028 l -5.627674,0.17567 -0.886984,0.88699 -0.886981,0.88698 -0.175676,5.62767 c -0.228326,7.31418 -0.226868,262.74695 0.0015,270.48357 l 0.174135,5.89824 0.752622,0.75214 0.752622,0.75214 80.001993,0.13573 c 79.75132,0.13528 80.00497,0.13746 80.95205,0.68615 1.41579,0.82031 1.84849,1.97853 2.18117,5.83857 0.16036,1.86065 0.58436,4.85961 0.94223,6.66439 0.35786,1.80475 0.78289,4.3455 0.94451,5.64607 0.16161,1.30057 0.54836,2.99983 0.85944,3.77614 0.31107,0.77633 1.11432,3.12158 1.785,5.21169 0.67068,2.09012 1.4575,4.26765 1.7485,4.83898 0.29101,0.57131 0.49129,1.28974 0.44509,1.5965 -0.0769,0.51062 -0.29054,0.56214 -2.52701,0.60948 -8.66629,0.18341 -181.614535,0.35184 -182.819644,0.17804 z"
   id="path48" /><path
   style="vector-effect:non-scaling-stroke;fill:#d7e3f4;stroke:#000000;stroke-width:0.271444;-inkscape-stroke:hairline"
   d="m 127.98588,376.92491 c -0.74647,-0.38242 -2.7783,-1.82701 -4.51519,-3.21022 -1.73689,-1.3832 -4.54633,-3.57289 -6.24322,-4.86599 -7.47971,-5.69986 -8.93673,-7.61354 -8.91532,-11.70951 0.0237,-4.52498 5.64113,-7.3087 9.97936,-4.94524 0.70378,0.38342 3.05078,2.16762 5.21555,3.96489 4.57711,3.80009 5.64237,4.44111 6.96725,4.19257 1.18556,-0.22242 2.06834,-1.10677 8.13823,-8.15271 7.63493,-8.86264 13.48632,-15.16461 14.93278,-16.08265 2.48768,-1.57889 4.86983,-1.83209 7.04388,-0.74872 0.74696,0.37223 1.63286,1.0484 1.96867,1.5026 1.39265,1.88367 1.35813,6.79726 -0.0628,8.9445 -1.4097,2.1302 -7.97673,9.63838 -16.05619,18.35728 -1.64512,1.77532 -4.23475,4.70949 -5.75473,6.52037 -4.36421,5.19947 -6.33006,6.59777 -9.57662,6.81182 -1.4992,0.0988 -1.96837,0.0118 -3.12161,-0.57899 z"
   id="path49" /><path
   style="vector-effect:non-scaling-stroke;fill:#d7e3f4;stroke:#000000;stroke-width:0.271444;-inkscape-stroke:hairline"
   d="m 128.76597,315.94896 c -2.4012,-1.18859 -17.15454,-12.64676 -19.2025,-14.91362 -1.64021,-1.81551 -1.909,-4.28829 -0.75076,-6.90668 1.60483,-3.62799 5.92214,-4.94609 9.6158,-2.93574 0.71961,0.39165 3.04225,2.15381 5.16143,3.9159 2.24906,1.87008 4.27309,3.33449 4.86204,3.51775 2.45928,0.76521 4.6138,-1.08253 14.92047,-12.79595 6.14913,-6.98842 10.11823,-11.02042 11.65406,-11.83876 1.3113,-0.69869 3.85643,-0.65463 5.27974,0.0914 1.50437,0.78853 3.01039,2.52317 3.37895,3.89186 0.23986,0.8908 0.21848,1.5575 -0.10003,3.11939 -0.7235,3.5478 0.31153,2.19992 -15.15663,19.73794 -10.98212,12.45169 -12.8827,14.44489 -14.45436,15.15875 -1.50149,0.68198 -3.78249,0.66348 -5.20821,-0.0423 z"
   id="path50" /><path
   style="vector-effect:non-scaling-stroke;fill:#d7e3f4;stroke:#000000;stroke-width:0.271444;-inkscape-stroke:hairline"
   d="m 128.42572,255.03125 c -1.70801,-0.81382 -3.55811,-2.13499 -10.21182,-7.29238 -9.537,-7.39226 -10.0919,-8.07974 -9.82663,-12.17428 0.19636,-3.0309 0.72638,-4.14231 2.50091,-5.24429 1.09847,-0.68214 1.64906,-0.82968 3.39177,-0.90891 2.84206,-0.1292 4.0638,0.44425 8.05035,3.77861 3.80063,3.17885 6.1122,4.47342 7.46579,4.18113 2.67571,-0.57778 5.75952,-3.44864 15.02039,-13.98318 7.29278,-8.29576 8.55063,-9.52586 10.37723,-10.14824 1.54319,-0.52582 4.13095,-0.55369 5.319,-0.0573 2.75171,1.14974 3.86709,5.40082 2.47954,9.45041 -0.51339,1.49836 -1.56684,2.76462 -11.25067,13.52352 -3.9641,4.40418 -8.93471,9.97228 -11.0458,12.37356 -2.11109,2.40128 -4.2465,4.71091 -4.74535,5.13251 -1.25112,1.05738 -2.85123,1.722 -4.59295,1.90771 -1.22438,0.13055 -1.71671,0.0401 -2.93176,-0.53888 z"
   id="path51" /><path
   style="vector-effect:non-scaling-stroke;fill:#d7e3f4;stroke:#000000;stroke-width:0.271444;-inkscape-stroke:hairline"
   d="m 129.27548,192.04927 c -1.35094,-0.58718 -2.78823,-1.63909 -10.47258,-7.66453 -7.62284,-5.9772 -9.22384,-7.37128 -9.8632,-8.58846 -0.55382,-1.05433 -0.77212,-4.37229 -0.38212,-5.80799 0.57692,-2.12385 3.10036,-4.15565 5.6719,-4.56685 1.60498,-0.25665 3.76024,0.86211 7.46767,3.87635 7.19405,5.84895 8.46904,6.36219 10.87613,4.37806 0.54895,-0.45248 2.85617,-3.034 5.12717,-5.73669 8.91281,-10.60706 14.92514,-16.81557 17.42984,-17.99858 4.28951,-2.026 8.55049,1.1669 8.55049,6.40718 0,2.32781 -1.43478,4.40148 -8.92391,12.89763 -11.41336,12.94804 -19.86885,21.82098 -21.58694,22.6527 -1.32957,0.64363 -2.64405,0.69466 -3.89445,0.15118 z"
   id="path52" /><path
   style="vector-effect:non-scaling-stroke;fill:#d7e3f4;stroke:#000000;stroke-width:0.271444;-inkscape-stroke:hairline"
   d="m 180.17219,186.05001 c -1.62826,-0.50307 -3.07383,-1.92624 -3.47686,-3.42299 -0.20144,-0.7481 -0.27343,-3.16968 -0.20784,-6.99162 0.10873,-6.33629 0.20392,-6.78316 1.8144,-8.51794 1.53606,-1.65461 -3.20366,-1.53671 61.70906,-1.53506 40.70077,0.001 59.85188,0.0916 60.55293,0.28626 1.28564,0.35702 2.69787,1.5795 3.35401,2.90335 0.44333,0.89448 0.50386,1.71562 0.50517,6.85231 0.002,6.55266 -0.20343,7.72391 -1.59638,9.11686 -1.70486,1.70486 2.44075,1.59466 -62.1915,1.65321 -51.3324,0.0465 -59.34553,8.7e-4 -60.46299,-0.34438 z"
   id="path53" /><path
   style="vector-effect:non-scaling-stroke;fill:#d7e3f4;stroke:#000000;stroke-width:0.271444;-inkscape-stroke:hairline"
   d="m 179.87581,250.16431 c -1.00708,-0.45323 -2.25332,-1.64288 -2.83603,-2.70726 -0.39976,-0.7302 -0.46403,-1.67326 -0.45565,-6.68615 0.006,-3.74999 0.12734,-6.23375 0.33872,-6.94869 0.47362,-1.60183 1.40884,-2.86078 2.64544,-3.56117 l 1.07775,-0.61042 59.31053,0.003 59.31053,0.003 1.62234,0.87456 c 3.0732,1.65669 3.53622,3.01682 3.53185,10.3751 -0.003,4.7113 -0.0689,5.5619 -0.50044,6.43522 -0.67413,1.36435 -1.6733,2.31323 -2.85501,2.71133 -1.47844,0.49805 -120.0886,0.60683 -121.19003,0.11114 z"
   id="path54" /><path
   style="vector-effect:non-scaling-stroke;fill:#d7e3f4;stroke:#000000;stroke-width:0.271444;-inkscape-stroke:hairline"
   d="m 201.54723,308.36635 -20.08686,-0.14159 -1.44506,-0.80049 c -1.57023,-0.86982 -2.13398,-1.5321 -2.90006,-3.4069 -0.41399,-1.01317 -0.51939,-2.2032 -0.61797,-6.97751 -0.11413,-5.52778 -0.0948,-5.80564 0.48704,-7.0076 0.74328,-1.53541 1.99581,-2.4021 4.34033,-3.00331 1.52534,-0.39115 4.00768,-0.46785 18.32247,-0.56613 9.10695,-0.0625 27.2462,-0.0116 40.30945,0.11321 23.66427,0.22606 23.75549,0.22906 24.87874,0.81864 1.3425,0.70466 2.59308,2.14589 3.06829,3.53603 0.48776,1.42686 0.68958,9.50028 0.30022,12.00976 -0.48054,3.09714 -1.11829,3.74893 -4.90399,5.01194 l -2.03675,0.67952 -19.81449,-0.062 c -10.89797,-0.0341 -28.85358,-0.1257 -39.90136,-0.20358 z"
   id="path55" /><path
   style="vector-effect:non-scaling-stroke;fill:#d7e3f4;stroke:#000000;stroke-width:0.271444;-inkscape-stroke:hairline"
   d="m 180.58498,372.16229 c -1.18133,-0.28683 -2.06805,-0.90086 -2.92678,-2.02672 -0.99257,-1.30132 -1.28043,-3.73437 -1.17222,-9.90776 0.10053,-5.73572 0.2422,-6.20488 2.3618,-7.82155 l 1.16185,-0.88617 h 35.14172 c 34.55173,0 35.15951,0.009 36.20096,0.54038 1.09539,0.55883 2.03999,1.63074 2.85435,3.23907 0.41961,0.82871 0.45025,1.50442 0.28307,6.24321 -0.10311,2.92266 -0.307,5.77891 -0.4531,6.34723 -0.34684,1.34922 -1.95871,3.11546 -3.49374,3.82832 -1.21677,0.56506 -1.35285,0.56743 -35.15201,0.6119 -18.66178,0.0246 -34.32444,-0.051 -34.8059,-0.16791 z"
   id="path56" /><path
   style="vector-effect:non-scaling-stroke;fill:#d7e3f4;stroke:#000000;stroke-width:0.271444;-inkscape-stroke:hairline"
   d="m 352.13618,456.82572 c -1.50013,-0.29608 -3.26993,-1.08985 -4.88229,-2.18975 -1.87697,-1.28041 -31.43542,-24.90959 -34.8704,-27.87558 -4.42879,-3.82411 -6.1457,-6.29406 -6.79241,-9.77157 -0.87656,-4.71349 2.73077,-11.22147 7.44066,-13.42365 3.28762,-1.53718 7.16119,-1.59459 10.6118,-0.15728 1.92677,0.80257 9.48961,6.47283 22.0405,16.52493 5.70771,4.57135 6.71439,5.25103 7.43741,5.02156 0.30356,-0.0964 1.51278,-1.23706 2.68718,-2.53492 8.67629,-9.58844 28.12326,-31.2662 34.38204,-38.32608 9.69634,-10.93743 13.58049,-14.86942 15.76815,-15.96238 5.36137,-2.67858 10.25011,-2.1531 14.27832,1.53474 2.95934,2.70929 4.30141,5.71845 4.30141,9.64452 0,2.41024 -0.48884,4.70959 -1.36732,6.43157 -0.72289,1.41699 -4.49967,5.71504 -36.23808,41.23971 -5.66875,6.34501 -12.88223,14.46797 -16.02997,18.05103 -8.65724,9.85454 -10.34718,11.25219 -14.29579,11.8233 -1.98034,0.28643 -2.89857,0.28023 -4.47121,-0.0301 z"
   id="path57" /><path
   style="vector-effect:non-scaling-stroke;fill:#3771c8;stroke:#000000;stroke-width:0.271444;-inkscape-stroke:hairline"
   d="m 340.69455,499.90942 c -1.08655,-1.13511 -1.36953,-1.25458 -5.5724,-2.3526 -20.3105,-5.3062 -41.63173,-21.76079 -53.28638,-41.1236 -6.59877,-10.96306 -10.67363,-22.97297 -12.70961,-37.45928 -0.59046,-4.20126 -0.81762,-14.61011 -0.41763,-19.13681 1.41974,-16.06712 6.94813,-31.23913 16.51398,-45.32068 3.23163,-4.75718 5.87438,-7.97881 10.10457,-12.31793 4.09971,-4.20527 7.55111,-7.16349 12.03782,-10.31768 19.46932,-13.68711 46.50393,-19.96007 69.70746,-16.17453 11.1488,1.81888 21.59162,5.75225 32.13607,12.10431 22.2735,13.41775 36.6214,32.68208 42.73584,57.37967 2.10285,8.49387 2.98398,15.61525 2.98774,24.14739 0.006,14.31328 -2.82336,26.42222 -9.22941,39.49511 -6.92016,14.12201 -16.12322,25.50488 -27.5426,34.06623 -9.63661,7.22478 -21.8659,12.83667 -33.7417,15.48369 -2.22639,0.49625 -2.74736,0.71696 -3.37916,1.43163 l -0.74695,0.84492 -19.33991,0.10451 -19.3399,0.10451 z m 17.35879,-42.69213 c 1.97107,-0.58482 3.81456,-1.5416 5.04001,-2.61581 0.55384,-0.48548 4.00908,-4.30024 7.67831,-8.47723 6.69444,-7.62084 16.79129,-18.94883 39.51607,-44.33438 6.71824,-7.50485 12.55233,-14.22082 12.96463,-14.92437 2.4313,-4.14869 2.5646,-9.7751 0.3358,-14.17342 -1.42965,-2.82129 -4.60722,-5.43658 -7.71723,-6.35165 -2.0712,-0.60942 -5.5173,-0.56226 -7.67788,0.10507 -2.58451,0.79828 -4.58934,2.25938 -8.24069,6.00573 -4.19179,4.30085 -5.23277,5.4417 -11.11837,12.18503 -5.47409,6.27185 -9.04841,10.26689 -18.45724,20.62976 -3.59207,3.95629 -8.58409,9.51411 -11.09338,12.3507 -2.50928,2.83659 -4.98507,5.5633 -5.50174,6.05936 -1.15897,1.11273 -0.29077,1.62674 -9.31909,-5.51738 -19.369,-15.32672 -19.22568,-15.22706 -23.07275,-16.04284 -5.06694,-1.07446 -9.83498,0.45217 -12.85772,4.11677 -3.82129,4.63273 -4.68127,9.55253 -2.48002,14.18775 1.42651,3.00382 4.65476,6.05033 15.88024,14.98622 5.15044,4.09993 12.84588,10.24184 17.10098,13.64869 7.75511,6.20912 9.65012,7.47068 12.28989,8.18167 1.92693,0.519 4.94437,0.51017 6.73018,-0.0197 z"
   id="path58" /><path
   style="vector-effect:non-scaling-stroke;fill:#afc6e9;stroke:#000000;stroke-width:0.271444;-inkscape-stroke:hairline"
   d="m 156.21607,79.274851 c -7.58583,-1.995424 -13.80358,-8.022954 -15.6258,-15.147774 -0.70604,-2.760595 -0.70878,-7.692289 -0.006,-11.096803 1.31487,-6.371189 5.3723,-11.661952 10.9866,-14.326164 4.41377,-2.094514 7.92524,-2.652036 16.04602,-2.547658 7.04597,0.09057 8.35309,-0.129237 10.49818,-1.765353 2.61246,-1.992592 4.03522,-4.740524 4.7303,-9.136185 0.2252,-1.424133 0.52289,-2.798266 0.66155,-3.053629 0.13865,-0.255363 0.17942,-0.653682 0.0906,-0.885154 -0.38913,-1.014053 0.55307,-4.095075 2.27753,-7.44762 1.58415,-3.079765 2.01694,-3.676092 4.37446,-6.0275113 1.81758,-1.8128746 3.14057,-2.8742114 4.33334,-3.4763181 0.94433,-0.4766963 2.26908,-1.3756492 2.9439,-1.9976732 1.15151,-1.0614314 1.342,-1.1374546 3.09883,-1.2367239 1.02953,-0.058174 1.87189,0.00435 1.87189,0.1389492 0,0.1409714 0.83431,0.1610722 1.96797,0.047413 2.88886,-0.289636 9.0118,-0.2717231 9.31077,0.027239 0.16143,0.1614307 0.66471,0.1638563 1.34364,0.00648 0.59705,-0.1383985 1.5769,-0.2545479 2.17745,-0.2581095 0.98056,-0.00582 1.14628,0.094476 1.62502,0.9834396 0.50874,0.9446895 1.72628,1.8758303 4.47667,3.4236536 1.64801,0.9274403 2.4204,1.7793271 1.90314,2.0990103 -0.29046,0.1795155 -0.2057,0.2805252 0.35311,0.4207761 0.40442,0.1015046 1.00183,0.5679592 1.32757,1.0365656 0.32573,0.4686064 1.14889,1.4699596 1.82924,2.2252286 2.15456,2.391836 3.69403,6.287643 3.77936,9.56412 0.0257,0.988496 0.21495,1.676929 0.60643,2.20643 0.53242,0.72013 0.6841,1.504532 0.47653,2.464268 -0.0484,0.223941 0.0123,1.440602 0.13491,2.703691 l 0.22297,2.296523 1.49073,1.61016 c 1.11872,1.208355 1.4007,1.667223 1.13,1.838841 -0.25866,0.163977 -0.19062,0.229859 0.24047,0.23284 0.33066,0.0023 0.7162,0.217918 0.85675,0.479183 0.23574,0.438184 1.99005,1.035882 4.73703,1.613922 0.57065,0.120079 3.90918,0.120008 7.41895,-1.6e-4 4.75204,-0.162698 6.47908,-0.137413 6.76398,0.09903 0.21042,0.174633 1.01704,0.367074 1.79249,0.427644 2.02533,0.158197 4.41681,0.829758 6.2497,1.754994 1.70591,0.86114 3.82821,2.60595 3.60637,2.964902 -0.0743,0.120288 0.28392,0.477718 0.79614,0.794289 1.48547,0.91807 3.75525,3.555893 4.84625,5.632071 2.94681,5.607799 2.92423,14.847886 -0.051,20.861021 -2.59523,5.245171 -8.09156,9.179376 -14.73727,10.548749 -1.86826,0.384962 -7.38951,0.429516 -51.57437,0.41617 -47.16484,-0.01425 -49.57112,-0.03835 -51.38224,-0.514764 z m 56.20715,-43.967218 c 1.92854,-0.853084 3.0388,-1.801778 4.18618,-3.576992 1.9858,-3.072422 2.4173,-6.865807 1.0797,-9.491877 -1.01483,-1.992394 -1.8791,-2.931148 -4.24961,-4.615867 -2.19783,-1.561995 -2.31183,-1.607696 -4.01009,-1.607696 -3.50572,0 -6.21107,0.932459 -8.25661,2.845816 -1.63575,1.530059 -2.60889,3.629946 -2.9987,6.470785 -0.52127,3.798915 -0.52257,3.793993 1.60817,6.07557 1.04474,1.118695 1.84793,2.117468 1.78487,2.219493 -0.22792,0.368789 1.85039,1.51557 3.60991,1.991897 2.33181,0.631254 5.41504,0.498871 7.24618,-0.311129 z"
   id="path59" /></svg>
