<?xml version="1.0" standalone="no"?>
<!DOCTYPE svg PUBLIC "-//W3C//DTD SVG 20010904//EN"
 "http://www.w3.org/TR/2001/REC-SVG-20010904/DTD/svg10.dtd">
<svg version="1.0" xmlns="http://www.w3.org/2000/svg"
 width="2000.001821pt" height="1091.000997pt" viewBox="0 0 2000.001821 1091.000997"
 preserveAspectRatio="xMidYMid meet">
<metadata>
Created by potrace 1.12, written by Peter Selinger 2001-2015
</metadata>
<g transform="translate(0.001821,1091.000000) scale(0.100000,-0.100000)"
fill="#000000" stroke="none">
<path d="M2 5458 l3 -5453 9998 -3 9997 -2 0 5455 0 5455 -10000 0 -10000 0 2
-5452z m11829 1941 c260 -26 512 -107 700 -224 82 -52 204 -152 272 -225 l69
-72 -214 -208 -213 -207 -88 83 c-147 140 -268 210 -442 255 -115 30 -340 33
-447 6 -175 -43 -321 -123 -436 -238 -111 -109 -186 -240 -238 -414 -25 -83
-27 -103 -28 -270 0 -154 3 -191 22 -259 65 -234 188 -412 367 -531 247 -165
546 -198 875 -99 20 6 12 -7 -39 -62 -188 -204 -385 -322 -618 -370 -107 -23
-327 -15 -438 15 -109 30 -247 98 -344 171 -237 179 -423 501 -487 845 -28
150 -26 462 4 602 87 405 295 716 627 938 206 138 437 223 690 254 50 6 101
13 115 15 54 7 193 5 291 -5z m-7067 -97 c11 -26 124 -292 251 -592 128 -300
319 -750 425 -1000 106 -250 196 -458 199 -462 4 -4 57 113 120 260 62 147
264 621 449 1054 l337 788 352 0 353 0 -25 -52 c-25 -54 -261 -598 -620 -1433
-109 -253 -296 -685 -415 -960 l-216 -500 -343 0 -343 0 -53 120 c-69 156
-358 821 -495 1140 -100 233 -253 585 -572 1320 -72 165 -137 315 -144 333
l-14 32 367 0 368 0 19 -48z m4996 -222 l0 -270 -770 0 -770 0 0 -320 0 -320
680 0 680 0 0 -265 0 -265 -680 0 -680 0 0 -345 0 -345 800 0 800 0 0 -275 0
-275 -1140 0 -1140 0 0 1475 0 1475 1110 0 1110 0 0 -270z m6221 252 c-9 -17
-371 -531 -766 -1087 -82 -115 -188 -266 -236 -334 l-87 -124 120 -151 c249
-314 865 -1091 921 -1162 l58 -74 -463 0 -463 0 -41 53 c-22 28 -108 138 -190
242 -82 105 -171 218 -197 251 l-48 61 68 96 c37 53 72 95 77 94 4 -2 106
-126 225 -277 l217 -275 152 -1 c84 0 154 2 156 5 2 3 -77 107 -175 231 -99
124 -199 250 -223 280 -223 283 -330 415 -336 415 -5 0 -124 -164 -265 -365
-142 -201 -316 -448 -388 -550 -72 -102 -142 -202 -156 -222 l-26 -38 -443 0
-444 0 44 63 c62 86 358 504 662 931 l255 360 -48 60 c-26 34 -157 203 -291
376 -134 173 -284 367 -334 430 -49 63 -94 121 -99 128 -7 9 84 12 449 12
l459 -1 145 -189 c80 -104 149 -188 154 -186 5 1 163 219 350 484 l340 482
438 0 c423 0 438 -1 429 -18z m-3075 -1934 c-3 -13 -10 -171 -16 -353 -6 -181
-13 -350 -16 -374 l-6 -43 -89 87 -89 88 -78 -75 c-254 -246 -531 -363 -909
-384 -119 -6 -286 5 -409 28 l-68 12 89 13 c316 46 578 195 784 447 60 73 211
297 211 312 0 5 -41 50 -91 100 l-91 91 149 13 c81 7 249 23 373 35 124 13
233 23 243 24 13 1 16 -5 13 -21z m-3948 -1483 c-34 -32 -68 -46 -68 -28 0 19
56 63 79 63 26 -1 26 -1 -11 -35z m-4728 -90 c0 -25 -1 -25 -85 -25 l-85 0 0
-45 0 -45 75 0 c73 0 75 -1 75 -25 0 -24 -2 -25 -75 -25 l-75 0 0 -50 0 -50
85 0 c84 0 85 0 85 -25 l0 -25 -110 0 -110 0 0 170 0 170 110 0 110 0 0 -25z
m214 -91 l86 -116 0 116 0 116 30 0 30 0 0 -170 0 -170 -23 0 c-18 0 -42 26
-108 115 l-84 115 -3 -115 c-3 -115 -3 -115 -27 -115 l-25 0 0 170 c0 216 3
218 124 54z m474 96 c35 -21 39 -32 19 -48 -10 -9 -24 -6 -55 9 -36 18 -46 19
-77 9 -123 -41 -102 -240 26 -240 63 0 69 6 69 66 0 51 1 54 25 54 24 0 25 -2
25 -65 0 -63 -1 -66 -32 -85 -40 -24 -116 -26 -158 -5 -92 48 -117 192 -47
271 17 20 40 40 51 44 40 16 119 11 154 -10z m342 -5 c0 -25 -1 -25 -80 -25
l-80 0 0 -45 0 -44 73 -3 c66 -3 72 -5 75 -25 3 -22 0 -23 -72 -23 l-76 0 0
-50 0 -50 85 0 c84 0 85 0 85 -25 l0 -25 -110 0 -110 0 0 170 0 170 105 0 105
0 0 -25z m220 -81 c41 -57 77 -109 78 -114 2 -6 8 -10 14 -10 6 0 8 43 7 113
l-3 112 27 3 27 3 0 -170 0 -171 -23 0 c-18 0 -42 25 -108 116 l-84 116 -3
-116 c-3 -116 -3 -116 -27 -116 l-25 0 0 170 c0 170 0 170 23 170 16 -1 41
-27 97 -106z m300 36 l0 -70 80 0 80 0 0 71 0 70 28 -3 27 -3 0 -165 0 -165
-27 -3 -28 -3 0 75 0 76 -80 0 -80 0 0 -75 c0 -73 -1 -75 -25 -75 l-25 0 0
170 0 170 25 0 c24 0 25 -2 25 -70z m534 -93 c36 -89 66 -166 66 -170 0 -5
-12 -7 -27 -5 -20 2 -29 11 -38 38 l-12 35 -80 3 -81 3 -16 -41 c-13 -32 -21
-40 -42 -40 -14 0 -24 4 -22 9 2 5 32 82 68 170 61 150 67 161 91 161 24 0 31
-11 93 -163z m321 149 c69 -29 85 -128 30 -186 l-28 -29 32 -51 c17 -27 31
-52 31 -55 0 -3 -11 -5 -25 -5 -19 0 -32 11 -56 50 -29 48 -33 50 -75 50 l-44
0 0 -50 c0 -47 -2 -50 -25 -50 l-25 0 0 170 0 170 75 0 c43 0 90 -6 110 -14z
m205 -156 l0 -170 -25 0 -25 0 0 170 0 170 25 0 25 0 0 -170z m302 45 c27 -66
58 -141 69 -167 l19 -48 -29 0 c-24 0 -30 6 -41 40 l-13 40 -82 0 -82 0 -12
-40 c-10 -33 -16 -40 -36 -40 -14 0 -25 4 -25 9 0 5 25 71 55 146 31 75 60
147 65 161 8 20 16 25 36 22 24 -3 32 -16 76 -123z m523 102 c18 -15 24 -28
20 -40 -9 -21 -23 -21 -49 -2 -11 8 -37 15 -58 15 -105 0 -147 -152 -60 -220
32 -26 92 -26 125 0 22 18 26 18 38 4 27 -33 -27 -74 -99 -74 -97 0 -162 68
-162 171 0 106 60 169 161 169 46 0 63 -5 84 -23z m326 0 c41 -27 79 -98 79
-147 0 -49 -38 -120 -79 -147 -76 -51 -185 -20 -225 62 -40 80 -15 187 53 232
47 32 125 32 172 0z m289 -93 l85 -115 3 115 c3 116 3 116 27 116 l25 0 0
-170 c0 -170 0 -170 -22 -169 -17 0 -43 28 -102 110 -44 60 -83 109 -88 109
-4 0 -8 -49 -8 -110 l0 -110 -25 0 -25 0 0 170 c0 170 0 170 23 170 16 -1 43
-29 107 -116z m460 91 c0 -23 -3 -25 -50 -25 l-50 0 0 -145 0 -145 -25 0 -25
0 0 145 0 145 -50 0 c-47 0 -50 2 -50 25 l0 25 125 0 125 0 0 -25z m256 -105
c27 -69 58 -144 67 -167 l17 -43 -28 0 c-25 0 -31 6 -42 40 l-13 40 -79 0 -80
0 -15 -40 c-13 -33 -21 -40 -44 -40 l-27 0 62 153 c34 83 65 160 69 170 5 13
15 17 34 15 26 -3 32 -14 79 -128z m353 115 c16 -8 31 -22 35 -30 11 -30 6
-78 -10 -96 -14 -16 -14 -19 5 -38 46 -46 37 -115 -20 -143 -25 -13 -58 -18
-126 -18 l-93 0 0 170 0 170 90 0 c60 0 101 -5 119 -15z m197 -22 c-3 -21 -6
-98 -6 -170 l0 -133 -25 0 -25 0 0 170 0 170 31 0 c31 0 31 -1 25 -37z m154
-108 l0 -145 80 0 c79 0 80 0 80 -25 l0 -25 -105 0 -105 0 0 170 0 170 25 0
25 0 0 -145z m596 119 c55 -40 69 -70 69 -142 0 -74 -16 -107 -69 -144 -25
-19 -47 -23 -128 -26 l-98 -4 0 172 0 172 99 -4 c82 -2 105 -7 127 -24z m374
1 c0 -25 -1 -25 -85 -25 l-85 0 0 -45 0 -45 75 0 c73 0 75 -1 75 -25 0 -24 -2
-25 -75 -25 l-75 0 0 -50 0 -50 90 0 c89 0 90 0 90 -25 l0 -25 -115 0 -115 0
0 170 0 170 110 0 110 0 0 -25z m448 -127 c33 -84 64 -161 68 -170 5 -14 1
-18 -20 -18 -21 0 -29 8 -42 40 l-16 41 -81 -3 -80 -3 -12 -35 c-9 -27 -18
-36 -38 -38 -15 -2 -27 -1 -27 3 0 3 30 80 66 170 63 155 69 165 94 165 25 0
30 -9 88 -152z m192 7 l0 -145 80 0 c79 0 80 0 80 -25 l0 -25 -105 0 -105 0 0
170 0 170 25 0 25 0 0 -145z m420 120 c0 -23 -3 -25 -50 -25 l-50 0 0 -145 0
-145 -25 0 -25 0 0 144 0 145 -52 3 c-46 3 -53 6 -56 26 -3 22 -3 22 127 22
l131 0 0 -25z m262 -125 c33 -80 64 -155 69 -167 8 -21 6 -23 -20 -23 -23 0
-31 6 -44 40 l-15 40 -80 0 -79 0 -16 -40 c-13 -33 -20 -40 -42 -40 -18 0 -25
4 -22 13 65 156 112 269 123 295 11 27 18 33 40 30 23 -3 32 -18 86 -148z
m473 136 c44 -19 69 -66 62 -119 -9 -68 -67 -107 -159 -107 l-38 0 0 -50 c0
-49 -1 -50 -30 -50 l-30 0 0 170 0 170 80 0 c47 0 95 -6 115 -14z m365 -11 c0
-25 -1 -25 -85 -25 l-85 0 0 -45 0 -45 75 0 c73 0 75 -1 75 -25 0 -24 -2 -25
-75 -25 l-75 0 0 -50 0 -50 90 0 c89 0 90 0 90 -25 l0 -25 -115 0 -115 0 0
170 0 170 110 0 110 0 0 -25z m280 10 c43 -22 60 -53 60 -108 0 -42 -5 -53
-30 -77 l-31 -29 31 -49 c36 -59 37 -62 6 -62 -18 0 -32 12 -55 50 -29 47 -34
50 -71 50 l-40 0 0 -50 c0 -49 -1 -50 -30 -50 l-30 0 0 170 0 170 80 0 c52 0
91 -5 110 -15z m370 -10 c0 -25 -1 -25 -80 -25 l-80 0 0 -55 0 -55 70 0 c63 0
70 -2 70 -20 0 -18 -7 -20 -70 -20 l-70 0 0 -70 0 -70 -30 0 -30 0 0 170 0
170 110 0 110 0 0 -25z m304 5 c47 -30 76 -87 76 -148 0 -60 -15 -94 -59 -136
-41 -39 -127 -48 -181 -18 -104 58 -104 247 0 303 47 25 126 25 164 -1z m370
-9 c51 -48 52 -139 1 -179 l-24 -19 34 -56 34 -57 -27 0 c-23 0 -33 9 -57 50
-28 48 -31 50 -72 50 l-43 0 0 -50 c0 -49 -1 -50 -30 -50 l-30 0 0 171 0 171
94 -4 c84 -3 97 -6 120 -27z m233 -81 c32 -60 60 -110 63 -110 3 0 32 50 64
110 43 82 62 110 77 110 18 0 19 -9 19 -170 l0 -170 -25 0 -25 0 0 113 0 112
-51 -93 c-28 -51 -56 -91 -62 -89 -7 2 -32 40 -57 85 -25 44 -48 84 -52 88 -5
4 -8 -43 -8 -104 l0 -112 -25 0 -25 0 0 170 0 170 24 0 c21 0 33 -16 83 -110z
m547 -55 c36 -91 66 -167 66 -170 0 -3 -11 -5 -24 -5 -18 0 -27 9 -40 40 l-16
40 -79 0 -79 0 -16 -40 c-13 -32 -21 -40 -42 -40 -14 0 -24 3 -22 8 2 4 32 80
68 170 61 152 67 162 91 162 25 0 31 -10 93 -165z m260 48 l86 -117 0 118 0
117 25 -3 25 -3 1 -145 c2 -194 2 -190 -20 -190 -14 0 -46 36 -103 115 l-83
116 -3 -116 c-3 -115 -3 -115 -27 -115 l-25 0 0 170 c0 217 3 218 124 53z
m474 97 c35 -22 39 -32 17 -50 -11 -9 -19 -8 -37 4 -32 23 -100 20 -131 -5
-58 -45 -58 -153 0 -198 32 -26 94 -28 129 -4 24 15 26 15 42 -1 16 -16 15
-18 -8 -36 -55 -42 -154 -39 -202 7 -17 15 -37 42 -44 60 -32 74 -3 182 59
222 43 28 130 28 175 1z m330 -2 c-3 -21 -9 -23 -85 -26 l-83 -3 0 -44 0 -45
53 -2 c28 -1 61 -2 72 -2 13 -1 21 -9 23 -24 3 -21 0 -22 -72 -22 l-76 0 0
-50 0 -50 85 0 c84 0 85 0 85 -25 l0 -25 -110 0 -110 0 0 170 0 170 111 0
c109 0 110 0 107 -22z m3222 -2714 c0 -37 57 -133 114 -190 57 -57 153 -114
190 -114 9 0 16 -7 16 -15 0 -8 -7 -15 -16 -15 -37 0 -133 -57 -189 -114 -56
-57 -115 -154 -115 -191 0 -21 -19 -19 -27 3 -39 117 -127 222 -226 272 -33
16 -68 30 -79 30 -23 0 -24 19 0 27 146 49 259 162 306 306 7 21 26 23 26 1z"/>
<path d="M15120 6948 c-63 -90 -173 -246 -245 -348 -72 -102 -201 -283 -285
-402 -85 -120 -157 -218 -160 -217 -3 0 -99 121 -213 270 l-208 269 -151 0
c-124 0 -149 -2 -145 -14 3 -8 129 -173 280 -368 150 -195 277 -360 281 -366
4 -6 -46 -86 -115 -184 -67 -95 -215 -303 -328 -463 -291 -411 -321 -455 -324
-467 -1 -7 45 -12 141 -14 l143 -3 44 62 c54 76 464 657 747 1057 345 489 594
842 765 1083 101 142 183 260 183 262 0 3 -66 5 -148 5 l-147 0 -115 -162z"/>
<path d="M6189 3710 c-15 -38 -24 -72 -21 -75 6 -6 112 -7 112 -1 0 14 -53
146 -59 146 -3 0 -18 -32 -32 -70z"/>
<path d="M6500 3730 l0 -70 50 0 c41 0 56 5 75 25 28 27 31 45 14 78 -17 32
-28 37 -86 37 l-53 0 0 -70z"/>
<path d="M7054 3764 c-4 -10 -15 -41 -26 -67 -10 -26 -18 -52 -18 -57 0 -5 25
-9 55 -9 30 1 55 5 55 9 0 13 -43 124 -51 134 -5 5 -11 1 -15 -10z"/>
<path d="M7847 3789 c-26 -15 -47 -63 -47 -109 0 -76 39 -119 107 -120 76 0
122 70 102 158 -11 52 -49 82 -102 82 -23 0 -50 -5 -60 -11z"/>
<path d="M8886 3716 c-14 -37 -26 -71 -26 -76 0 -6 25 -10 55 -10 30 0 55 4
55 9 0 13 -42 124 -50 134 -4 5 -19 -21 -34 -57z"/>
<path d="M9192 3753 l3 -48 48 -3 c58 -4 97 17 97 51 0 37 -19 47 -88 47 l-64
0 4 -47z"/>
<path d="M9197 3653 c-4 -3 -7 -26 -7 -50 l0 -43 69 0 c73 0 101 14 101 49 0
34 -33 51 -97 51 -33 0 -63 -3 -66 -7z"/>
<path d="M10130 3680 l0 -120 50 0 c90 0 133 39 133 120 0 81 -43 120 -133
120 l-50 0 0 -120z"/>
<path d="M10998 3713 c-14 -38 -23 -71 -21 -75 5 -9 97 -11 105 -3 6 7 -44
145 -53 145 -3 0 -18 -30 -31 -67z"/>
<path d="M11898 3774 c-11 -16 -48 -118 -48 -130 0 -6 22 -10 56 -10 52 0 55
2 49 23 -11 45 -51 127 -57 117z"/>
<path d="M12330 3730 l0 -70 48 0 c65 0 92 20 92 69 0 52 -23 71 -88 71 l-52
0 0 -70z"/>
<path d="M12978 3730 l4 -70 49 0 c58 0 89 24 89 70 0 47 -31 70 -92 70 l-53
0 3 -70z"/>
<path d="M13674 3803 c-12 -2 -34 -18 -50 -34 -25 -27 -29 -38 -29 -90 0 -56
3 -63 33 -90 75 -67 182 -12 182 93 0 75 -67 134 -136 121z"/>
<path d="M14000 3730 l0 -70 50 0 c62 0 90 24 90 74 0 45 -29 66 -92 66 l-48
0 0 -70z"/>
<path d="M14812 3718 c-12 -35 -22 -69 -22 -75 0 -14 95 -19 103 -5 5 8 -45
142 -53 142 -3 0 -15 -28 -28 -62z"/>
</g>
</svg>
